<svg width="1200" height="720" viewBox="0 0 1200 720" fill="none" xmlns="http://www.w3.org/2000/svg">
<rect width="1200" height="720" rx="40" fill="#111827"/>
<rect x="70" y="90" width="1060" height="540" rx="34" fill="#1F2937" stroke="#374151"/>
<text x="100" y="145" fill="#FDF2F8" font-size="38" font-family="Arial" font-weight="700">Beyond Proposal + Design System</text>
<g>
<rect x="120" y="200" width="190" height="120" rx="22" fill="#BE185D"/>
<text x="160" y="270" fill="#FDF2F8" font-size="28" font-family="Arial" font-weight="700">Shop</text>
<rect x="340" y="200" width="190" height="120" rx="22" fill="#7C3AED"/>
<text x="385" y="270" fill="#FDF2F8" font-size="28" font-family="Arial" font-weight="700">Adopt</text>
<rect x="560" y="200" width="190" height="120" rx="22" fill="#1D4ED8"/>
<text x="586" y="270" fill="#FDF2F8" font-size="28" font-family="Arial" font-weight="700">Inventory</text>
<rect x="780" y="200" width="190" height="120" rx="22" fill="#0F766E"/>
<text x="790" y="270" fill="#ECFEFF" font-size="28" font-family="Arial" font-weight="700">Leaderboard</text>
<rect x="230" y="360" width="190" height="120" rx="22" fill="#F59E0B"/>
<text x="275" y="430" fill="#78350F" font-size="28" font-family="Arial" font-weight="700">Rewards</text>
<rect x="450" y="360" width="190" height="120" rx="22" fill="#EC4899"/>
<text x="494" y="430" fill="#FDF2F8" font-size="28" font-family="Arial" font-weight="700">Training</text>
<rect x="670" y="360" width="190" height="120" rx="22" fill="#64748B"/>
<text x="698" y="430" fill="#FDF2F8" font-size="28" font-family="Arial" font-weight="700">Health Logs</text>
</g>
<rect x="895" y="355" width="175" height="170" rx="24" fill="#FDF2F8"/>
<text x="932" y="398" fill="#9D174D" font-size="26" font-family="Arial" font-weight="700">Design</text>
<text x="920" y="438" fill="#6B7280" font-size="21" font-family="Arial">pink theme</text>
<text x="920" y="470" fill="#6B7280" font-size="21" font-family="Arial">motion + cards</text>
<text x="920" y="502" fill="#6B7280" font-size="21" font-family="Arial">i18n + docs</text>
</svg>
